<svg id="Group_3916" data-name="Group 3916" xmlns="http://www.w3.org/2000/svg" width="31.495" height="31.489" viewBox="0 0 31.495 31.489">
  <defs>
    <style>
      .cls-1 {
        fill: #0065ff;
      }

      .cls-2 {
        fill: #fefefe;
      }

      .cls-3 {
        fill: #fdfdfd;
      }
    </style>
  </defs>
  <path id="Path_7324" data-name="Path 7324" class="cls-1" d="M621.006,7.019c0-.922.008-1.843-.006-2.765,0-.206.034-.255.249-.254q10.86.011,21.719.006,4.639,0,9.277-.006c.216,0,.252.049.249.255-.014.921-.006,1.843-.006,2.765a.429.429,0,0,1-.359.129c-.4,0-.792.014-1.187-.013-.194.017-.389.017-.583.017H623.17c-.2,0-.41,0-.614-.017-.4.026-.794.015-1.19.014A.43.43,0,0,1,621.006,7.019Z" transform="translate(-621 -4)"/>
  <path id="Path_7325" data-name="Path 7325" class="cls-1" d="M824.28,351h-7.133a.312.312,0,0,1-.111-.212,5.532,5.532,0,0,1,.576-3.234,3.726,3.726,0,0,1,1.34-1.273c.184-.106.185-.169.011-.289a3.1,3.1,0,0,1-1.356-2.135,3.007,3.007,0,0,1,1.422-3.136,2.951,2.951,0,0,1,3.366,0,3,3,0,0,1,1.426,3.133,3.118,3.118,0,0,1-1.3,2.1c-.255.186-.257.193.007.35a3.817,3.817,0,0,1,1.875,3.409c.01.306,0,.613,0,.92A.446.446,0,0,1,824.28,351Z" transform="translate(-804.966 -319.516)"/>
  <path id="Path_7326" data-name="Path 7326" class="cls-1" d="M670.854,351.493a11.143,11.143,0,0,1,.1-2.35,3.468,3.468,0,0,1,1.943-2.374l.24-.117a3.765,3.765,0,0,1-1.094-.852,3.886,3.886,0,0,1-.679-1.445.389.389,0,0,1-.139-.355,3.156,3.156,0,0,1,6.141-1.144,2.249,2.249,0,0,1,.11,1.5,2.9,2.9,0,0,1-1.1,1.954c-.1.083-.216.156-.324.233-.089.064-.1.122,0,.182l.107.06a3.651,3.651,0,0,1,1.886,3.145c.025.4.005.8,0,1.2a.447.447,0,0,1-.123.366Z" transform="translate(-667.773 -320.005)"/>
  <path id="Path_7327" data-name="Path 7327" class="cls-1" d="M972.663,344.2a3.407,3.407,0,0,1-.974,1.756,4.553,4.553,0,0,1-.809.546,3.594,3.594,0,0,1,1.842,1.584,3.246,3.246,0,0,1,.448,1.6c0,.552,0,1.1,0,1.657H966.1a.376.376,0,0,1-.12-.3,13.493,13.493,0,0,1,.049-1.685,3.584,3.584,0,0,1,1.809-2.7c.275-.161.28-.164.014-.345a2.923,2.923,0,0,1-1.3-2.1,2.7,2.7,0,0,1,.626-2.435,3.108,3.108,0,0,1,4.623-.345,3.06,3.06,0,0,1,1,2.484A.334.334,0,0,1,972.663,344.2Z" transform="translate(-944.754 -319.851)"/>
  <path id="Path_7328" data-name="Path 7328" class="cls-1" d="M666.353,74.838l-3.11,0a3.193,3.193,0,0,0-.413-2.034,3.035,3.035,0,0,0-5.211,0,3.2,3.2,0,0,0-.413,2.034l-3.11,0A2.994,2.994,0,0,0,653.3,72.3a2.879,2.879,0,0,0-2.75-.925,2.947,2.947,0,0,0-2.332,1.985,3.4,3.4,0,0,0-.159,1.479c-.584,0-1.168-.009-1.751.014-.259.01-.3-.09-.3-.317.007-2.171,0-4.342,0-6.514q0-7.236,0-14.471c.123,0,.245-.014.368-.014h27.667c.123,0,.245.009.368.014q0,10.508.007,21.016c0,.2-.038.291-.266.284-.594-.017-1.188-.01-1.782-.012a3.216,3.216,0,0,0-.758-2.5,3.053,3.053,0,0,0-4.841.419A3.158,3.158,0,0,0,666.353,74.838Z" transform="translate(-644.477 -50.487)"/>
  <path id="Path_7329" data-name="Path 7329" class="cls-2" d="M651.838,21.267q-7.192,0-14.384.008c-.3,0-.371-.082-.361-.371.023-.674.007-.675.676-.675H666.2c.4,0,.4,0,.4.391,0,.647,0,.647-.653.647Z" transform="translate(-636.102 -19.231)"/>
  <path id="Path_7330" data-name="Path 7330" class="cls-2" d="M845.867,363.015a2.033,2.033,0,1,1,2.055-1.956A2.051,2.051,0,0,1,845.867,363.015Z" transform="translate(-830.136 -337.115)"/>
  <path id="Path_7331" data-name="Path 7331" class="cls-2" d="M837.921,452.811c-.777,0-1.555,0-2.332,0-.139,0-.228-.011-.235-.189a2.587,2.587,0,0,1,2.094-2.841,2.506,2.506,0,0,1,2.984,2.275c.046.754.039.754-.7.754Z" transform="translate(-822.165 -422.314)"/>
  <path id="Path_7332" data-name="Path 7332" class="cls-2" d="M697.152,363.042a2.032,2.032,0,1,1,.049-4.064,2.032,2.032,0,0,1-.049,4.064Z" transform="translate(-690.56 -337.142)"/>
  <path id="Path_7333" data-name="Path 7333" class="cls-2" d="M689.4,452.684h-2.306c-.124,0-.225.021-.239-.175a2.6,2.6,0,0,1,2.055-2.854,2.539,2.539,0,0,1,2.995,2.105c.105.923.105.923-.815.923Z" transform="translate(-682.796 -422.188)"/>
  <path id="Path_7334" data-name="Path 7334" class="cls-2" d="M994.517,363.017a2.033,2.033,0,1,1,0-4.066,2.033,2.033,0,1,1,0,4.066Z" transform="translate(-969.621 -337.116)"/>
  <path id="Path_7335" data-name="Path 7335" class="cls-2" d="M986.468,452.793c-.758,0-1.517-.01-2.275.006-.236,0-.287-.069-.287-.295a2.6,2.6,0,0,1,2-2.718,2.553,2.553,0,0,1,3.107,2.315c.029.692.029.692-.668.692Z" transform="translate(-961.582 -422.297)"/>
  <path id="Path_7336" data-name="Path 7336" class="cls-2" d="M786.886,121.234a12.623,12.623,0,0,1,.48-2.47A14.235,14.235,0,0,1,790,113.607a11.906,11.906,0,0,1,5.708-3.978c.31-.1.311-.1.082-.332-.166-.167-.326-.341-.5-.5-.126-.111-.1-.18,0-.293.523-.554.519-.557,1.046-.03.348.348.693.7,1.045,1.041a.318.318,0,0,1,.1.352c-.163.613-.319,1.228-.46,1.847-.044.191-.118.211-.294.169-.709-.168-.708-.161-.54-.863.039-.165.182-.387.067-.487s-.34.04-.507.1a11.427,11.427,0,0,0-6.33,5.6,13.888,13.888,0,0,0-1.553,5.012c-.024.207-.1.263-.291.241-.162-.019-.326-.028-.49-.034S786.847,121.4,786.886,121.234Z" transform="translate(-776.673 -101.684)"/>
  <path id="Path_7337" data-name="Path 7337" class="cls-2" d="M986.555,98.805a1.749,1.749,0,0,1,.023-3.5,1.782,1.782,0,0,1,1.742,1.75A1.761,1.761,0,0,1,986.555,98.805Z" transform="translate(-962.441 -89.69)"/>
  <path id="Path_7338" data-name="Path 7338" class="cls-2" d="M776.92,91.2c-.073.079-.136.144-.2.212-.208.235-.614.422-.6.689.013.233.364.466.6.662s.174.3-.011.479c-.457.436-.449.444-.885.008-.47-.47-.47-.47-.944,0-.43.43-.419.418-.864.005-.216-.2-.242-.332,0-.521.176-.138.315-.322.483-.471.137-.121.157-.21.008-.342a5.762,5.762,0,0,1-.565-.564c-.321-.374.17-.418.277-.613.083-.151.222-.311.421-.066.174.213.391.39.58.592.1.109.175.1.275,0,.2-.216.422-.418.626-.634.1-.106.177-.11.277,0,.131.143.275.275.411.415A1.61,1.61,0,0,1,776.92,91.2Z" transform="translate(-764.432 -85.229)"/>
  <path id="Path_7339" data-name="Path 7339" class="cls-3" d="M906.89,238.559c.058.052.1.091.148.133.175.173.361.336.519.523s.3.237.478.011c.166-.206.377-.375.558-.57.092-.1.145-.089.243,0,.594.537.6.534.039,1.092-.39.39-.39.39-.006.775.543.543.539.539-.011,1.06-.118.112-.184.113-.291,0-.18-.2-.383-.371-.559-.57-.139-.157-.244-.175-.391-.007-.175.2-.379.374-.559.57-.111.121-.183.141-.317.013-.547-.525-.552-.52-.016-1.056.4-.4.4-.4,0-.8-.564-.564-.564-.564.051-1.073Z" transform="translate(-888.754 -224.13)"/>
  <path id="Path_7340" data-name="Path 7340" class="cls-3" d="M693.769,190.458c-.029.031-.07.077-.113.12-.18.182-.351.375-.545.541s-.167.286.01.44.35.345.524.519c.036.036.105.077.1.109-.03.3-.328.4-.48.607-.076.1-.158.105-.252.008-.206-.214-.425-.416-.627-.633-.119-.128-.208-.127-.326,0-.2.21-.4.408-.607.609-.048.048-.111.144-.173.089a8.168,8.168,0,0,1-.607-.605c-.041-.045.048-.1.088-.142.194-.2.383-.4.588-.584.156-.14.171-.249.007-.4-.206-.184-.39-.392-.59-.582-.1-.093-.12-.151-.012-.269.528-.572.523-.577,1.079-.021.389.389.389.389.779,0,.014-.014.028-.03.044-.043.171-.14.316-.462.491-.409.226.068.393.337.583.521C693.758,190.363,693.8,190.39,693.769,190.458Z" transform="translate(-686.378 -178.38)"/>
</svg>
