<svg id="Group_3918" data-name="Group 3918" xmlns="http://www.w3.org/2000/svg" width="34.426" height="35.827" viewBox="0 0 34.426 35.827">
  <defs>
    <style>
      .cls-1 {
        fill: #0065ff;
      }

      .cls-2 {
        fill: #fefefe;
      }
    </style>
  </defs>
  <path id="Path_7351" data-name="Path 7351" class="cls-1" d="M626.107-7.905h.42a3.524,3.524,0,0,1,2.572,1.35c.5.508,1,1.01,1.529,1.485a1.327,1.327,0,0,0,1.155.345c.841-.123,1.685-.234,2.525-.363a3.227,3.227,0,0,1,3.859,2.672c.179.879.326,1.765.464,2.651a1.34,1.34,0,0,0,.758,1.056c.754.393,1.5.8,2.253,1.2a3.6,3.6,0,0,1,1.619,1.586,3.843,3.843,0,0,1,.222,1.848,2.641,2.641,0,0,1-.365,1.191c-.4.767-.738,1.559-1.13,2.327a1.166,1.166,0,0,0,0,1.13c.427.868.912,1.715,1.249,2.617a3.191,3.191,0,0,1-1.5,4.286c-.748.4-1.494.815-2.254,1.2a1.455,1.455,0,0,0-.856,1.145c-.159.965-.294,1.937-.522,2.889a3.181,3.181,0,0,1-2.681,2.426,8.162,8.162,0,0,1-2.05-.161c-.53-.076-1.061-.15-1.591-.229a1.329,1.329,0,0,0-1.154.345c-.647.574-1.226,1.212-1.856,1.8a3.128,3.128,0,0,1-1.767.989c-.159.018-.326-.039-.478.045h-.49a3.456,3.456,0,0,1-2.427-1.276c-.523-.531-1.046-1.061-1.6-1.559a1.329,1.329,0,0,0-1.155-.346c-.842.123-1.685.233-2.526.362a3.223,3.223,0,0,1-3.859-2.67c-.181-.891-.321-1.79-.475-2.685a1.33,1.33,0,0,0-.748-1.026c-.756-.389-1.5-.8-2.253-1.2a3.593,3.593,0,0,1-1.619-1.587,3.846,3.846,0,0,1-.221-1.849,2.637,2.637,0,0,1,.366-1.191c.4-.766.737-1.56,1.13-2.327a1.168,1.168,0,0,0,0-1.131c-.424-.869-.912-1.715-1.249-2.617a3.186,3.186,0,0,1,1.474-4.267c.777-.425,1.554-.85,2.346-1.246A1.356,1.356,0,0,0,614,.236c.162-.977.3-1.96.527-2.924a3.179,3.179,0,0,1,2.681-2.427,8.141,8.141,0,0,1,2.05.161c.531.076,1.061.15,1.591.229a1.329,1.329,0,0,0,1.155-.345c.646-.574,1.227-1.212,1.856-1.8a3.129,3.129,0,0,1,1.767-.989C625.788-7.879,625.954-7.822,626.107-7.905Z" transform="translate(-609.104 7.905)"/>
  <path id="Path_7352" data-name="Path 7352" class="cls-2" d="M741.814,118.714a3.822,3.822,0,0,1,3.952-3.779,3.807,3.807,0,0,1-.183,7.611A3.8,3.8,0,0,1,741.814,118.714Z" transform="translate(-732.523 -106.333)"/>
  <path id="Path_7353" data-name="Path 7353" class="cls-2" d="M867.353,276.154a3.795,3.795,0,1,1-3.773-3.826A3.825,3.825,0,0,1,867.353,276.154Z" transform="translate(-842.218 -252.711)"/>
  <path id="Path_7354" data-name="Path 7354" class="cls-2" d="M757.632,135.842a.963.963,0,0,1,.962.55.988.988,0,0,1-.076,1.084,2.875,2.875,0,0,1-.3.339q-6.615,6.618-13.224,13.241a1.091,1.091,0,1,1-1.5-1.508q6.639-6.593,13.24-13.225A1.183,1.183,0,0,1,757.632,135.842Z" transform="translate(-733.642 -125.778)"/>
</svg>
