<svg id="Group_3930" data-name="Group 3930" xmlns="http://www.w3.org/2000/svg" width="30.688" height="30.688" viewBox="0 0 30.688 30.688">
  <defs>
    <style>
      .cls-1 {
        fill: #0065ff;
      }

      .cls-2 {
        fill: #fefefe;
      }
    </style>
  </defs>
  <path id="Path_7355" data-name="Path 7355" class="cls-1" d="M616.783,10.9v4.615a7.864,7.864,0,0,1-.288,1.518,6.987,6.987,0,0,1-5.205,4.655c-.049.012-.1.019-.147.029-.453.09-.441.091-.456.557a9.273,9.273,0,0,1-6.752,8.607c-.415.119-.415.122-.281.524.258.777.524,1.552.772,2.332a.425.425,0,0,0,.475.344q1.438-.016,2.876,0a1.667,1.667,0,0,1,1.744,1.266c.085.256.187.506.271.762.254.768.542,1.524.787,2.295.038.118.12.238.031.37H592.268c-.075-.1-.028-.192,0-.284.375-1.138.764-2.271,1.181-3.394a1.6,1.6,0,0,1,1.65-1.012c.938-.016,1.877,0,2.816,0,.411,0,.417-.006.549-.4q.4-1.178.786-2.359c.1-.31.1-.323-.223-.412a9.075,9.075,0,0,1-2.913-1.366,9.182,9.182,0,0,1-3.691-5.491,7.19,7.19,0,0,1-.234-1.956c.011-.254-.126-.318-.339-.356a7.088,7.088,0,0,1-3.047-1.327,6.912,6.912,0,0,1-2.6-4.013c-.071-.29-.038-.593-.112-.883V10.842a1.464,1.464,0,0,1,1.653-1.289c1.329,0,2.657,0,3.986,0,.42,0,.441-.024.443-.438,0-.23,0-.46,0-.689a.479.479,0,0,1,.09-.339h18.341c.159.238.082.5.087.759.016.758-.076.708.717.709q1.918,0,3.836,0a1.674,1.674,0,0,1,1.187.485A1.416,1.416,0,0,1,616.783,10.9Z" transform="translate(-586.095 -8.085)"/>
  <path id="Path_7356" data-name="Path 7356" class="cls-2" d="M770.443,109.925c.442.983.859,1.9,1.261,2.818a.361.361,0,0,0,.392.262c.967-.014,1.935-.006,2.9-.006.048.094-.015.143-.055.2q-1.013,1.349-2.029,2.695a.472.472,0,0,0-.086.462c.237.875.448,1.758.666,2.638a1.188,1.188,0,0,1,.012.18c-.87-.477-1.73-.92-2.557-1.416a.849.849,0,0,0-1,0c-.823.492-1.676.932-2.573,1.424.1-.412.179-.777.268-1.14.138-.565.266-1.133.429-1.691a.462.462,0,0,0-.089-.461q-1.018-1.344-2.029-2.695a.2.2,0,0,1-.061-.193h.782c.7,0,1.4-.008,2.1,0a.375.375,0,0,0,.422-.263C769.581,111.818,770,110.907,770.443,109.925Z" transform="translate(-755.099 -103.819)"/>
  <path id="Path_7357" data-name="Path 7357" class="cls-2" d="M994.97,87.681c0-.918.005-1.836,0-2.754,0-.194.047-.256.249-.254.878.011,1.756.01,2.634,0,.182,0,.236.044.233.231-.012.708.033,1.419-.014,2.124a4.029,4.029,0,0,1-2.769,3.586c-.224.072-.346.075-.337-.242C994.986,89.477,994.97,88.579,994.97,87.681Z" transform="translate(-970.445 -80.082)"/>
  <path id="Path_7358" data-name="Path 7358" class="cls-2" d="M639.754,87.726c0,.909-.006,1.817,0,2.726,0,.208-.057.234-.235.168a4.053,4.053,0,0,1-2.85-3.411,19.309,19.309,0,0,1-.028-2.394c0-.139.083-.132.175-.132.909,0,1.817.006,2.726,0,.217,0,.209.11.209.261C639.752,85.869,639.754,86.8,639.754,87.726Z" transform="translate(-633.59 -80.087)"/>
</svg>
