<svg id="Group_3914" data-name="Group 3914" xmlns="http://www.w3.org/2000/svg" width="31.907" height="36.671" viewBox="0 0 31.907 36.671">
  <defs>
    <style>
      .cls-1 {
        fill: #2667fe;
      }

      .cls-2 {
        fill: #5c8cfe;
      }

      .cls-3 {
        fill: #fefefe;
      }
    </style>
  </defs>
  <g id="Group_3913" data-name="Group 3913" transform="translate(0 0)">
    <path id="Path_7312" data-name="Path 7312" class="cls-1" d="M660.42,97.635v.507c-.281,1.211-.691,1.537-1.961,1.562-.186,0-.373,0-.559,0-.8.008-.89.1-.9.919,0,.321,0,.643,0,.964a5.209,5.209,0,0,1-5.083,5.115c-.339.005-.678,0-1.017,0-.82.006-.915.1-.918.9-.006,1.488.009,2.976-.009,4.464,0,.271.073.6-.3.731q-6.517.012-13.031,0c-.4-.035-.365-.346-.369-.607-.021-1.25,0-2.5-.01-3.752a9.667,9.667,0,0,0-2.956-7.1,18.4,18.4,0,0,1-3.282-4.1,11.75,11.75,0,0,1-1.5-6.244V89.8a12.681,12.681,0,0,1,4.5-10.055,13.822,13.822,0,0,1,6.167-3.281,11.271,11.271,0,0,1,1.874-.216,14.2,14.2,0,0,1,9.919,2.433,13.988,13.988,0,0,1,5.906,9.939,8.354,8.354,0,0,0,.918,3.171c.673,1.211,1.24,2.48,1.882,3.708A6.372,6.372,0,0,1,660.42,97.635Z" transform="translate(-628.512 -76.184)"/>
    <path id="Path_7313" data-name="Path 7313" class="cls-2" d="M720.254,435.3l.022.108H707.048l.018-.107Z" transform="translate(-699.052 -398.737)"/>
    <path id="Path_7314" data-name="Path 7314" class="cls-3" d="M703.622,137.939c.121-.746.24-1.49.363-2.233a13.455,13.455,0,0,1,.29-1.587.836.836,0,0,0-.337-.951c-.815-.764-1.607-1.551-2.4-2.335-.114-.112-.277-.194-.315-.424.818-.121,1.63-.243,2.442-.361q.8-.116,1.607-.218a.632.632,0,0,0,.514-.419c.585-1.207,1.188-2.407,1.831-3.7.534,1.072,1.1,2.029,1.495,3.053a1.74,1.74,0,0,0,1.739,1.2c1.053.082,2.1.286,3.144.438.022.226-.144.289-.242.386q-1.3,1.283-2.616,2.552a.578.578,0,0,0-.2.611c.228,1.173.417,2.353.616,3.531.025.147.022.3.035.482a2.669,2.669,0,0,1-.793-.349c-.944-.489-1.889-.977-2.823-1.484a.655.655,0,0,0-.7,0c-1.039.56-2.088,1.1-3.136,1.647C703.989,137.847,703.863,137.98,703.622,137.939Z" transform="translate(-693.817 -120.669)"/>
  </g>
</svg>
