<?xml version="1.0" encoding="utf-8"?>
<!-- Generator: Adobe Illustrator 26.2.1, SVG Export Plug-In . SVG Version: 6.00 Build 0)  -->
<svg version="1.1" id="Group_3929" xmlns="http://www.w3.org/2000/svg" xmlns:xlink="http://www.w3.org/1999/xlink" x="0px" y="0px"
	 viewBox="0 0 34.7 34.7" style="enable-background:new 0 0 34.7 34.7;" xml:space="preserve">
<style type="text/css">
	.st0{fill:#0065FF;}
</style>
<g>
	<path class="st0" d="M26.3,33.3c3,0,5.5-2.5,5.5-5.5c0-3-2.5-5.5-5.5-5.5c-3,0-5.5,2.5-5.5,5.5C20.8,30.9,23.3,33.3,26.3,33.3
		L26.3,33.3z M26.2,24.3c0.4,0,0.8,0.4,0.8,0.8S26.7,26,26.2,26s-0.8-0.4-0.8-0.8C25.4,24.7,25.8,24.3,26.2,24.3z M25.2,29.9h0.4
		v-2.2h-0.4v-1.1H27v3.3h0.4V31h-2.3L25.2,29.9L25.2,29.9z"/>
	<path class="st0" d="M7.5,15.3C7.7,15.9,8,17.2,8.8,18c0.6,2.3,2.4,4.9,5.2,5.8c0.7,0.2,1.4,0.4,2.1,0.4c0.7,0,1.5-0.1,2.1-0.4
		c2.8-1,4.6-3.6,5.2-5.8c0.8-0.7,1.1-2,1.4-2.7c0.3-1.1,0.6-2.6-0.2-3.7c0,0-0.1-0.1-0.1-0.1c0.4-2.8,0.1-5-0.9-6.3
		c-0.5-0.6-1.1-1-1.6-1.2c-0.4-0.4-1-1.1-2-1.6c-1.1-0.6-2.4-1-3.7-1c-0.2,0-0.5,0-0.7,0c-0.6,0-1.2,0.1-1.8,0.3
		c-0.6,0.2-1.3,0.5-1.9,1c-0.7,0.4-1.3,0.9-1.9,1.6C8.9,5.4,8.1,6.6,7.8,8c-0.3,1-0.3,2.1,0,3.4c0,0-0.1,0.1-0.1,0.1
		C6.9,12.7,7.2,14.2,7.5,15.3L7.5,15.3z M9.5,12.3h0.1c0,0,0.5-6.6,5.8-4.3c2.8,1.2,4.8,1.1,6.1,0.8c1.7,1.1,1.2,3.1,1.1,3.4v0h0.1
		c0.5,0,1.1,0.4,0.5,2.5c-0.5,1.7-0.9,2.1-1.2,2.1c-0.3,2-1.9,4.5-4.3,5.3c-0.5,0.2-1,0.3-1.6,0.3c-0.5,0-1.1-0.1-1.6-0.3
		c-2.5-0.8-4-3.3-4.3-5.3c-0.3,0-0.8-0.5-1.2-2.1C8.4,12.7,9,12.3,9.5,12.3L9.5,12.3z"/>
	<path class="st0" d="M16.1,33.3c1.7,0,3.4-0.3,5-0.8c-1.1-1.2-1.8-2.9-1.8-4.7c0-1.1,0.3-2.2,0.7-3.1c-0.4,0.2-0.8,0.4-1.2,0.5
		c-0.8,0.3-1.8,0.5-2.7,0.5c-0.9,0-1.8-0.1-2.6-0.4c-1.8-0.6-3.1-1.7-4.1-2.9c-1.4,0.8-3.9,2.2-6.5,4.2
		C5.8,30.6,10.6,33.3,16.1,33.3L16.1,33.3z"/>
</g>
</svg>
