<svg id="Group_3928" data-name="Group 3928" xmlns="http://www.w3.org/2000/svg" width="28.794" height="35.798" viewBox="0 0 28.794 35.798">
  <defs>
    <style>
      .cls-1 {
        fill: #0065ff;
      }

      .cls-2 {
        fill: #fefefe;
      }
    </style>
  </defs>
  <path id="Path_7315" data-name="Path 7315" class="cls-1" d="M637.068,297.608a29.423,29.423,0,0,1-7.167-.994,11.687,11.687,0,0,1-4.211-2.016,5.714,5.714,0,0,1-1.059-1.1,1.352,1.352,0,0,1-.228-1.137,18.349,18.349,0,0,1,1.473-4.73,4.47,4.47,0,0,1,1.737-1.931c2.026-1.2,4.113-2.3,6.177-3.434a.632.632,0,0,1,.768.051,7.134,7.134,0,0,0,2.623,1.283.8.8,0,0,1,.6.557c.3.827.625,1.648.97,2.554l.763-1.98a.218.218,0,0,0,.008-.034,1.5,1.5,0,0,1,1.3-1.26,5.4,5.4,0,0,0,2.1-1.1.649.649,0,0,1,.8-.062c2.022,1.115,4.066,2.189,6.059,3.358a5.206,5.206,0,0,1,2.118,2.491,18.916,18.916,0,0,1,1.25,4.479c.1.56-.279.937-.6,1.3a8.489,8.489,0,0,1-3.31,2.158,20.214,20.214,0,0,1-4.707,1.2,34.329,34.329,0,0,1-4.16.352c-.254.07-.521-.034-.773.058H637.84C637.588,297.573,637.321,297.676,637.068,297.608Z" transform="translate(-624.366 -261.868)"/>
  <path id="Path_7316" data-name="Path 7316" class="cls-1" d="M675.484-7.9a6.274,6.274,0,0,0,1.253.131,8.834,8.834,0,0,1,5.22,2.157,7.9,7.9,0,0,1,2.2,4.089c.152.654.249,1.316.337,1.979.025.191.092.245.258.225,1.205-.149,1.684.534,1.644,1.738-.047,1.432-.008,2.866-.013,4.3a1.236,1.236,0,0,1-.707,1.251,1.961,1.961,0,0,1-.786.114.358.358,0,0,0-.335.121,4.648,4.648,0,0,1-2.737,1.509,19.817,19.817,0,0,1-4.914.423.618.618,0,0,0-.527.182.885.885,0,0,1-.67.238c-.454,0-.909.007-1.363,0a1.012,1.012,0,1,1-.014-2.024q.681-.015,1.363,0a1.023,1.023,0,0,1,.849.4.32.32,0,0,0,.279.162,19.018,19.018,0,0,0,4.943-.429,4.487,4.487,0,0,0,1.418-.594,1.392,1.392,0,0,1-.771-.624,1.363,1.363,0,0,1-.15-.6q.009-2.447,0-4.894A1.207,1.207,0,0,1,682.7.941a.321.321,0,0,0,.12-.334,10.115,10.115,0,0,0-.994-3.647,5.642,5.642,0,0,0-3.923-2.831,14.569,14.569,0,0,0-4.64-.275,8.084,8.084,0,0,0-4.073,1.3,5.873,5.873,0,0,0-2.232,3.412A10.936,10.936,0,0,0,666.6.577a.392.392,0,0,0,.15.389,1.13,1.13,0,0,1,.411.919q0,2.5,0,5a1.131,1.131,0,0,1-1.052,1.166,10.548,10.548,0,0,1-1.918.009,1.139,1.139,0,0,1-1.143-1.236q-.025-2.447,0-4.894a1.172,1.172,0,0,1,1.276-1.25c.07,0,.141-.006.209,0,.25.028.379-.008.417-.328a13.212,13.212,0,0,1,.732-3.228,7.207,7.207,0,0,1,5.407-4.607A11.973,11.973,0,0,1,673.8-7.84c.055,0,.119.011.143-.063Z" transform="translate(-660.333 7.903)"/>
  <path id="Path_7317" data-name="Path 7317" class="cls-1" d="M740.994,47.005a8.877,8.877,0,0,1-3.561,1.965,4.99,4.99,0,0,1-3.636-.6,9.09,9.09,0,0,1-4.165-4.193.42.42,0,0,1-.013-.449,1.877,1.877,0,0,0,.214-.97c0-1.723-.012-3.447-.011-5.171a1.425,1.425,0,0,0-.24-.853,1.244,1.244,0,0,1-.191-1.07,6.094,6.094,0,0,1,1.467-3.3,5.755,5.755,0,0,1,3.277-1.513,14.5,14.5,0,0,1,3.338-.128,7.427,7.427,0,0,1,3.725,1.042,4.81,4.81,0,0,1,1.969,2.994c.116.433.187.878.275,1.319a.454.454,0,0,1-.086.389,2.115,2.115,0,0,0-.411,1.332q.012,2.585.016,5.171c0,.058,0,.117,0,.175-.01.164.211.34.053.467-.119.1-.329.077-.5.109a22.867,22.867,0,0,1-3.469.279.589.589,0,0,1-.407-.157,1.8,1.8,0,0,0-1.15-.407c-.524.005-1.048.008-1.572,0a1.992,1.992,0,0,0-.012,3.983,10.664,10.664,0,0,0,2.049-.064c.023,0,.052,0,.069-.008a4.125,4.125,0,0,1,2.321-.346C740.532,47,740.718,47.005,740.994,47.005Z" transform="translate(-722.008 -27.991)"/>
  <path id="Path_7318" data-name="Path 7318" class="cls-2" d="M883.367,378.717c-.733,0-1.466-.007-2.2,0-.209,0-.3-.027-.3-.274.008-.794,0-.794.786-.794,1.314,0,2.629.006,3.943-.006.248,0,.309.072.306.313-.009.757,0,.757-.76.757Z" transform="translate(-862.93 -350.681)"/>
</svg>
